SplineFontDB: 3.0
FontName: Jones-it
FullName: Jones* Book
FamilyName: Jones*
Weight: Book
Copyright: 
UComments: "2016-1-29: Created with FontForge (http://fontforge.org)"
Version: 002.000
ItalicAngle: 0
UnderlinePosition: -300
UnderlineWidth: 50
Ascent: 800
Descent: 200
InvalidEm: 0
LayerCount: 2
Layer: 0 0 "Back" 1
Layer: 1 0 "Fore" 0
XUID: [1021 31 -699969567 4970488]
FSType: 0
OS2Version: 2
OS2_WeightWidthSlopeOnly: 0
OS2_UseTypoMetrics: 0
CreationTime: 1454127431
ModificationTime: 1454300069
PfmFamily: 17
TTFWeight: 400
TTFWidth: 5
LineGap: 70
VLineGap: 0
OS2TypoAscent: 800
OS2TypoAOffset: 0
OS2TypoDescent: -200
OS2TypoDOffset: 0
OS2TypoLinegap: 90
OS2WinAscent: 910
OS2WinAOffset: 0
OS2WinDescent: 170
OS2WinDOffset: 0
HheadAscent: 700
HheadAOffset: 0
HheadDescent: -150
HheadDOffset: 0
OS2SubXSize: 700
OS2SubYSize: 650
OS2SubXOff: 0
OS2SubYOff: 140
OS2SupXSize: 700
OS2SupYSize: 650
OS2SupXOff: 0
OS2SupYOff: 480
OS2StrikeYSize: 50
OS2StrikeYPos: 250
OS2CapHeight: 700
OS2XHeight: 520
OS2Vendor: 'PfEd'
MarkAttachClasses: 1
DEI: 91125

StartChar: E
Encoding: 69 69 0
Width: 670
VWidth: 0
Flags: HW
LayerCount: 2
Fore
SplineSet
100 398 m 1
 560 398 l 1
 560 318 l 1
 100 318 l 1
 100 398 l 1
100 700 m 1
 610 700 l 1
 610 620 l 1
 100 620 l 1
 100 700 l 1
100 80 m 1
 610 80 l 1
 610 0 l 1
 100 0 l 1
 100 80 l 1
100 700 m 1
 185 700 l 1
 185 0 l 1
 100 0 l 1
 100 700 l 1
EndSplineSet
EndChar

StartChar: I
Encoding: 73 73 1
Width: 295
VWidth: 0
Flags: HW
LayerCount: 2
Fore
SplineSet
105 700 m 5
 190 700 l 5
 190 0 l 5
 105 0 l 5
 105 700 l 5
EndSplineSet
EndChar

StartChar: F
Encoding: 70 70 2
Width: 665
VWidth: 0
Flags: HW
LayerCount: 2
Fore
SplineSet
100 378 m 1
 560 378 l 1
 560 298 l 5
 100 298 l 5
 100 378 l 1
100 700 m 1
 610 700 l 1
 610 620 l 1
 100 620 l 1
 100 700 l 1
100 700 m 1
 185 700 l 1
 185 0 l 1
 100 0 l 1
 100 700 l 1
EndSplineSet
EndChar

StartChar: H
Encoding: 72 72 3
Width: 760
VWidth: 0
Flags: HW
LayerCount: 2
Fore
SplineSet
575 700 m 1
 660 700 l 1
 660 0 l 1
 575 0 l 1
 575 700 l 1
100 398 m 1
 610 398 l 1
 610 318 l 5
 100 318 l 5
 100 398 l 1
100 700 m 1
 185 700 l 1
 185 0 l 1
 100 0 l 1
 100 700 l 1
EndSplineSet
EndChar

StartChar: L
Encoding: 76 76 4
Width: 655
VWidth: 0
Flags: HW
LayerCount: 2
Fore
SplineSet
100 80 m 1
 610 80 l 1
 610 0 l 1
 100 0 l 1
 100 80 l 1
100 700 m 1
 185 700 l 1
 185 0 l 1
 100 0 l 1
 100 700 l 1
EndSplineSet
EndChar

StartChar: T
Encoding: 84 84 5
Width: 685
VWidth: 0
Flags: HW
LayerCount: 2
Fore
SplineSet
50 700 m 1
 635 700 l 1
 635 620 l 1
 50 620 l 1
 50 700 l 1
300 700 m 1
 385 700 l 1
 385 0 l 1
 300 0 l 1
 300 700 l 1
EndSplineSet
EndChar

StartChar: O
Encoding: 79 79 7
Width: 850
VWidth: 0
Flags: HW
LayerCount: 2
Fore
SplineSet
155 350 m 0
 155 194 274 70 425 70 c 0
 576 70 695 194 695 350 c 0
 695 506 576 630 425 630 c 0
 274 630 155 506 155 350 c 0
70 350 m 0
 70 549 230 710 425 710 c 0
 620 710 780 549 780 350 c 0
 780 151 620 -10 425 -10 c 0
 230 -10 70 151 70 350 c 0
EndSplineSet
EndChar

StartChar: C
Encoding: 67 67 8
Width: 732
VWidth: 0
Flags: HW
LayerCount: 2
Fore
SplineSet
155 350 m 0
 155 194 274 70 425 70 c 0
 508 70 583 108 636 169 c 1
 692 113 l 1
 627 38 531 -10 425 -10 c 0
 230 -10 70 151 70 350 c 0
 70 549 230 710 425 710 c 0
 531 710 627 662 692 587 c 1
 636 531 l 1
 583 592 508 630 425 630 c 0
 274 630 155 506 155 350 c 0
EndSplineSet
EndChar

StartChar: A
Encoding: 65 65 9
Width: 795
VWidth: 0
Flags: HW
LayerCount: 2
Fore
SplineSet
360 700 m 1
 435 700 l 5
 430 690 l 1
 360 690 l 1
 360 700 l 1
204 260 m 1
 596 260 l 1
 596 185 l 1
 204 185 l 1
 204 260 l 1
670 0 m 1
 360 690 l 1
 435 700 l 1
 755 0 l 1
 670 0 l 1
360 700 m 1
 435 690 l 1
 125 0 l 1
 40 0 l 1
 360 700 l 1
EndSplineSet
EndChar

StartChar: V
Encoding: 86 86 10
Width: 775
VWidth: 0
Flags: HW
LayerCount: 2
Fore
SplineSet
425 0 m 1
 350 0 l 1
 350 30 l 1
 425 30 l 1
 425 0 l 1
130 700 m 1
 425 30 l 1
 350 0 l 1
 40 700 l 1
 130 700 l 1
425 0 m 1
 350 30 l 1
 645 700 l 1
 735 700 l 1
 425 0 l 1
EndSplineSet
EndChar

StartChar: G
Encoding: 71 71 11
Width: 782
VWidth: 0
Flags: HW
LayerCount: 2
Fore
SplineSet
702 370 m 1
 702 295 l 1
 425 295 l 1
 425 370 l 1
 702 370 l 1
702 113 m 1
 617 113 l 5
 617 370 l 5
 702 370 l 1
 702 113 l 1
155 350 m 0
 155 194 274 70 425 70 c 0
 508 70 593 108 646 169 c 1
 702 113 l 1
 637 38 531 -10 425 -10 c 0
 230 -10 70 151 70 350 c 0
 70 549 230 710 425 710 c 0
 531 710 627 662 692 587 c 1
 636 531 l 1
 583 592 508 630 425 630 c 0
 274 630 155 506 155 350 c 0
EndSplineSet
EndChar

StartChar: D
Encoding: 68 68 12
Width: 805
VWidth: 0
Flags: HW
LayerCount: 2
Fore
SplineSet
100 700 m 1
 380 700 l 1
 380 620 l 1
 100 620 l 1
 100 700 l 1
100 80 m 1
 380 80 l 1
 380 0 l 1
 100 0 l 1
 100 80 l 1
100 700 m 1
 185 700 l 1
 185 0 l 1
 100 0 l 1
 100 700 l 1
380 80 m 1
 531 80 650 194 650 350 c 0
 650 506 531 620 380 620 c 1
 380 700 l 1
 575 700 735 549 735 350 c 0
 735 151 575 0 380 0 c 1
 380 80 l 1
EndSplineSet
EndChar

StartChar: U
Encoding: 85 85 13
Width: 760
VWidth: 0
Flags: HW
LayerCount: 2
Fore
SplineSet
590 280 m 1
 590 700 l 1
 670 700 l 1
 670 280 l 1
 590 280 l 1
90 280 m 1
 90 700 l 1
 170 700 l 1
 170 280 l 1
 90 280 l 1
590 280 m 1
 670 280 l 1
 670 111 539 -10 380 -10 c 0
 221 -10 90 111 90 280 c 1
 170 280 l 1
 170 161 263 65 380 65 c 0
 497 65 590 161 590 280 c 1
EndSplineSet
EndChar

StartChar: o
Encoding: 111 111 14
Width: 650
VWidth: 0
Flags: HW
LayerCount: 2
Fore
SplineSet
135 260 m 4
 135 151 218 65 325 65 c 4
 432 65 515 151 515 260 c 4
 515 369 432 455 325 455 c 4
 218 455 135 369 135 260 c 4
55 260 m 4
 55 409 176 530 325 530 c 4
 474 530 595 409 595 260 c 4
 595 111 474 -10 325 -10 c 4
 176 -10 55 111 55 260 c 4
EndSplineSet
EndChar

StartChar: B
Encoding: 66 66 15
Width: 695
VWidth: 0
Flags: HW
LayerCount: 2
Fore
SplineSet
355 398 m 1
 443 398 508 422 508 507 c 0
 508 592 443 620 355 620 c 1
 355 700 l 1
 484 700 593 631 593 507 c 0
 593 384 484 340 355 340 c 1
 355 398 l 1
100 700 m 1
 185 700 l 1
 185 0 l 1
 100 0 l 1
 100 700 l 1
100 80 m 5
 395 80 l 5
 395 0 l 1
 100 0 l 1
 100 80 l 5
100 700 m 1
 355 700 l 1
 355 620 l 1
 100 620 l 1
 100 700 l 1
100 398 m 1
 395 398 l 1
 395 318 l 1
 100 318 l 1
 100 398 l 1
395 80 m 5
 483 80 555 105 555 195 c 0
 555 285 483 318 395 318 c 1
 395 375 l 1
 524 375 640 324 640 195 c 0
 640 66 524 0 395 0 c 1
 395 80 l 5
EndSplineSet
EndChar

StartChar: K
Encoding: 75 75 16
Width: 740
VWidth: 0
Flags: HW
LayerCount: 2
Fore
SplineSet
286 413 m 1
 385 413 l 1
 715 0 l 1
 616 0 l 1
 286 413 l 1
565 700 m 1
 665 700 l 1
 185 207 l 1
 105 230 l 1
 565 700 l 1
100 700 m 1
 185 700 l 1
 185 0 l 1
 100 0 l 1
 100 700 l 1
EndSplineSet
EndChar

StartChar: R
Encoding: 82 82 17
Width: 713
VWidth: 0
Flags: HW
LayerCount: 2
Fore
SplineSet
328 320 m 1
 428 320 l 1
 668 0 l 1
 568 0 l 1
 328 320 l 1
395 338 m 1
 482 338 548 392 548 477 c 0
 548 562 482 620 395 620 c 1
 395 700 l 1
 524 700 633 602 633 477 c 0
 633 353 524 258 395 258 c 1
 395 338 l 1
100 700 m 1
 185 700 l 1
 185 0 l 1
 100 0 l 1
 100 700 l 1
100 700 m 1
 395 700 l 1
 395 620 l 1
 100 620 l 1
 100 700 l 1
100 338 m 1
 395 338 l 1
 395 258 l 1
 100 258 l 1
 100 338 l 1
EndSplineSet
EndChar

StartChar: P
Encoding: 80 80 18
Width: 638
VWidth: 0
Flags: HW
LayerCount: 2
Fore
SplineSet
355 338 m 1
 443 338 508 392 508 477 c 0
 508 562 443 620 355 620 c 1
 355 700 l 1
 484 700 593 602 593 477 c 4
 593 353 484 258 355 258 c 1
 355 338 l 1
100 700 m 1
 185 700 l 1
 185 0 l 1
 100 0 l 1
 100 700 l 1
100 700 m 1
 185 700 l 1
 185 0 l 1
 100 0 l 1
 100 700 l 1
100 700 m 1
 355 700 l 1
 355 620 l 1
 100 620 l 1
 100 700 l 1
100 338 m 1
 355 338 l 1
 355 258 l 1
 100 258 l 1
 100 338 l 1
EndSplineSet
EndChar

StartChar: Q
Encoding: 81 81 19
Width: 849
VWidth: 0
Flags: HW
LayerCount: 2
Fore
SplineSet
735 -44 m 1
 467 224 l 1
 523 280 l 5
 791 13 l 5
 735 -44 l 1
155 350 m 0
 155 194 274 70 425 70 c 0
 576 70 695 194 695 350 c 0
 695 506 576 630 425 630 c 0
 274 630 155 506 155 350 c 0
70 350 m 0
 70 549 230 710 425 710 c 0
 620 710 780 549 780 350 c 0
 780 151 620 -10 425 -10 c 0
 230 -10 70 151 70 350 c 0
EndSplineSet
EndChar

StartChar: J
Encoding: 74 74 20
Width: 594
VWidth: 0
Flags: HW
LayerCount: 2
Fore
SplineSet
414 260 m 1
 414 700 l 1
 494 700 l 1
 494 260 l 1
 414 260 l 1
414 260 m 5
 494 260 l 5
 494 91 404 -10 265 -10 c 4
 157 -10 72 51 30 157 c 5
 96 192 l 5
 131 109 186 65 265 65 c 4
 362 65 414 141 414 260 c 5
EndSplineSet
EndChar

StartChar: S
Encoding: 83 83 21
Width: 625
VWidth: 0
Flags: HW
LayerCount: 2
Fore
SplineSet
485 195 m 1
 565 195 l 1
 565 66 477 -10 328 -10 c 0
 199 -10 112 56 50 113 c 1
 101 173 l 1
 149 129 230 65 328 65 c 0
 421 65 485 105 485 195 c 1
170 529 m 1
 90 529 l 1
 90 650 196 710 305 710 c 0
 414 710 496 674 548 622 c 1
 500 568 l 1
 455 612 383 635 305 635 c 0
 222 635 170 601 170 529 c 1
330 404 m 4
 447 386 565 325 565 195 c 5
 485 195 l 5
 485 266 408.594726562 311.76171875 300 326 c 4
 196.39453125 339.583984375 90 404 90 529 c 5
 170 529 l 5
 170 459 232.151367188 419.053710938 330 404 c 4
EndSplineSet
EndChar

StartChar: M
Encoding: 77 77 22
Width: 922
VWidth: 0
Flags: HW
LayerCount: 2
Fore
SplineSet
485 130 m 1
 437 130 l 1
 437 195 l 1
 485 195 l 1
 485 130 l 1
737 640 m 1
 747 700 l 1
 822 700 l 1
 822 680 l 1
 737 640 l 1
812 655 m 1
 485 130 l 1
 437 195 l 1
 747 700 l 1
 812 655 l 1
822 680 m 1
 822 0 l 1
 737 0 l 1
 737 640 l 1
 822 680 l 1
185 640 m 1
 100 680 l 1
 100 700 l 1
 175 700 l 1
 185 640 l 1
110 655 m 1
 175 700 l 1
 485 195 l 1
 437 130 l 1
 110 655 l 1
100 680 m 1
 185 640 l 1
 185 0 l 1
 100 0 l 1
 100 680 l 1
EndSplineSet
EndChar

StartChar: Y
Encoding: 89 89 23
Width: 675
VWidth: 0
Flags: HW
LayerCount: 2
Fore
SplineSet
295 295 m 1
 380 295 l 1
 380 0 l 1
 295 0 l 1
 295 295 l 1
30 700 m 1
 125 700 l 1
 380 295 l 1
 335 217 l 1
 30 700 l 1
550 700 m 1
 645 700 l 1
 340 217 l 1
 295 295 l 1
 550 700 l 1
EndSplineSet
EndChar

StartChar: W
Encoding: 87 87 24
Width: 1060
VWidth: 0
Flags: HW
LayerCount: 2
Fore
SplineSet
490 700 m 1
 570 700 l 1
 566 690 l 5
 494 690 l 1
 490 700 l 1
785 0 m 1
 710 0 l 1
 710 10 l 1
 785 10 l 1
 785 0 l 1
570 700 m 1
 785 10 l 1
 710 0 l 1
 494 690 l 1
 570 700 l 1
785 0 m 1
 710 10 l 1
 930 700 l 1
 1015 700 l 1
 785 0 l 1
350 0 m 1
 275 0 l 1
 275 10 l 1
 350 10 l 1
 350 0 l 1
130 700 m 1
 350 10 l 1
 275 0 l 1
 45 700 l 1
 130 700 l 1
350 0 m 1
 275 10 l 1
 490 700 l 1
 566 690 l 5
 350 0 l 1
EndSplineSet
EndChar

StartChar: N
Encoding: 78 78 25
Width: 780
VWidth: 0
Flags: HW
LayerCount: 2
Fore
SplineSet
680 0 m 1
 605 0 l 1
 605 24 l 1
 680 14 l 1
 680 0 l 1
175 700 m 1
 175 680 l 1
 100 680 l 1
 100 700 l 1
 175 700 l 1
100 665 m 1
 175 700 l 1
 680 35 l 5
 605 0 l 1
 100 665 l 1
595 700 m 1
 680 700 l 1
 680 0 l 1
 595 20 l 1
 595 700 l 1
100 700 m 1
 185 680 l 1
 185 0 l 1
 100 0 l 1
 100 700 l 1
EndSplineSet
EndChar

StartChar: X
Encoding: 88 88 26
Width: 745
VWidth: 0
Flags: HW
LayerCount: 2
Fore
SplineSet
65 700 m 1
 165 700 l 1
 700 0 l 1
 600 0 l 1
 65 700 l 1
580 700 m 1
 680 700 l 1
 145 0 l 1
 45 0 l 1
 580 700 l 1
EndSplineSet
EndChar

StartChar: Z
Encoding: 90 90 27
Width: 680
VWidth: 0
Flags: HW
LayerCount: 2
Fore
SplineSet
595 630 m 1
 585 630 l 1
 585 700 l 1
 595 700 l 1
 595 630 l 1
65 70 m 1
 75 70 l 1
 75 0 l 1
 65 0 l 1
 65 70 l 1
85 700 m 1
 585 700 l 1
 585 620 l 1
 85 620 l 1
 85 700 l 1
75 80 m 5
 615 80 l 5
 615 0 l 5
 75 0 l 5
 75 80 l 5
500 630 m 1
 595 630 l 1
 160 70 l 1
 65 70 l 1
 500 630 l 1
EndSplineSet
EndChar

StartChar: l
Encoding: 108 108 28
Width: 260
VWidth: 0
Flags: HW
LayerCount: 2
Fore
SplineSet
90 730 m 5
 170 730 l 5
 170 0 l 5
 90 0 l 5
 90 730 l 5
EndSplineSet
EndChar

StartChar: b
Encoding: 98 98 29
Width: 650
VWidth: 0
Flags: HW
LayerCount: 2
Fore
SplineSet
165 260 m 4
 165 141 243 65 340 65 c 4
 437 65 515 141 515 260 c 4
 515 379 437 455 340 455 c 4
 243 455 165 379 165 260 c 4
130 260 m 4
 130 409 201 530 350 530 c 4
 479 530 595 419 595 260 c 4
 595 101 479 -10 350 -10 c 4
 201 -10 130 111 130 260 c 4
85 730 m 5
 165 730 l 5
 165 0 l 5
 85 0 l 5
 85 730 l 5
EndSplineSet
EndChar

StartChar: c
Encoding: 99 99 30
Width: 573
VWidth: 0
Flags: HW
LayerCount: 2
Fore
SplineSet
135 260 m 4
 135 151 218 65 325 65 c 4
 389 65 445 94 482 143 c 5
 533 92 l 5
 486 28 412 -10 325 -10 c 4
 176 -10 55 111 55 260 c 4
 55 409 176 530 325 530 c 4
 412 530 485 491 532 428 c 5
 482 377 l 5
 445 426 389 455 325 455 c 4
 218 455 135 369 135 260 c 4
EndSplineSet
EndChar

StartChar: d
Encoding: 100 100 31
Width: 650
VWidth: 0
Flags: HW
LayerCount: 2
Fore
SplineSet
485 260 m 4
 485 379 407 455 310 455 c 4
 213 455 135 379 135 260 c 4
 135 141 213 65 310 65 c 4
 407 65 485 141 485 260 c 4
520 260 m 4
 520 111 449 -10 300 -10 c 4
 171 -10 55 101 55 260 c 4
 55 419 171 530 300 530 c 4
 449 530 520 409 520 260 c 4
565 730 m 5
 565 0 l 5
 485 0 l 5
 485 730 l 5
 565 730 l 5
EndSplineSet
EndChar

StartChar: k
Encoding: 107 107 32
Width: 570
VWidth: 0
Flags: HW
LayerCount: 2
Fore
SplineSet
245 291 m 1
 325 305 l 1
 545 0 l 1
 455 0 l 1
 245 291 l 1
430 520 m 1
 525 520 l 1
 165 110 l 1
 110 154 l 1
 430 520 l 1
85 730 m 1
 165 730 l 1
 165 0 l 1
 85 0 l 1
 85 730 l 1
EndSplineSet
EndChar

StartChar: e
Encoding: 101 101 33
Width: 605
VWidth: 0
Flags: HW
LayerCount: 2
Fore
SplineSet
555 260 m 1
 555 230 l 1
 475 230 l 1
 475 260 l 1
 555 260 l 1
475 230 m 1
 109 230 l 1
 109 302 l 5
 475 302 l 5
 475 230 l 1
475 260 m 1
 475 379 412 455 305 455 c 0
 198 455 135 379 135 260 c 1
 55 260 l 1
 55 419 166 530 305 530 c 0
 444 530 555 419 555 260 c 1
 475 260 l 1
55 260 m 1
 135 260 l 1
 135 141 208 65 315 65 c 0
 379 65 445 94 482 143 c 1
 533 92 l 1
 486 28 402 -10 315 -10 c 0
 166 -10 55 101 55 260 c 1
EndSplineSet
EndChar

StartChar: p
Encoding: 112 112 34
Width: 650
VWidth: 0
Flags: HW
LayerCount: 2
Fore
SplineSet
165 260 m 0
 165 141 243 65 340 65 c 0
 437 65 515 141 515 260 c 0
 515 379 437 455 340 455 c 0
 243 455 165 379 165 260 c 0
130 260 m 0
 130 409 201 530 350 530 c 0
 479 530 595 419 595 260 c 0
 595 101 479 -10 350 -10 c 0
 201 -10 130 111 130 260 c 0
85 -200 m 5
 85 520 l 1
 165 520 l 1
 165 -200 l 5
 85 -200 l 5
EndSplineSet
EndChar

StartChar: q
Encoding: 113 113 35
Width: 650
VWidth: 0
Flags: HW
LayerCount: 2
Fore
SplineSet
485 260 m 0
 485 379 407 455 310 455 c 0
 213 455 135 379 135 260 c 0
 135 141 213 65 310 65 c 0
 407 65 485 141 485 260 c 0
520 260 m 0
 520 111 449 -10 300 -10 c 0
 171 -10 55 101 55 260 c 0
 55 419 171 530 300 530 c 0
 449 530 520 409 520 260 c 0
565 -200 m 5
 485 -200 l 5
 485 520 l 1
 565 520 l 1
 565 -200 l 5
EndSplineSet
EndChar

StartChar: h
Encoding: 104 104 36
Width: 630
VWidth: 0
Flags: HW
LayerCount: 2
Fore
SplineSet
550 300 m 1
 550 0 l 1
 470 0 l 1
 470 300 l 1
 550 300 l 1
85 730 m 1
 165 730 l 1
 165 0 l 1
 85 0 l 1
 85 730 l 1
470 300 m 1
 470 389 435 455 325 455 c 0
 226 455 165 390 165 280 c 1
 130 280 l 1
 130 419 206 530 345 530 c 0
 474 530 550 429 550 300 c 1
 470 300 l 1
EndSplineSet
EndChar

StartChar: n
Encoding: 110 110 37
Width: 630
VWidth: 0
Flags: HW
LayerCount: 2
Fore
SplineSet
550 300 m 1
 550 0 l 1
 470 0 l 1
 470 300 l 1
 550 300 l 1
85 520 m 1
 165 520 l 1
 165 0 l 1
 85 0 l 1
 85 520 l 1
470 300 m 1
 470 390 435 455 325 455 c 0
 227 455 165 390 165 280 c 1
 130 280 l 1
 130 419 206 530 345 530 c 0
 474 530 550 429 550 300 c 1
 470 300 l 1
EndSplineSet
EndChar

StartChar: m
Encoding: 109 109 38
Width: 895
VWidth: 0
Flags: HW
LayerCount: 2
Fore
SplineSet
815 300 m 1
 815 0 l 1
 735 0 l 1
 735 300 l 1
 815 300 l 1
735 300 m 1
 735 390 715 460 620 460 c 0
 537 460 490 390 490 280 c 1
 455 280 l 1
 455 419 516 530 640 530 c 0
 764 530 815 429 815 300 c 1
 735 300 l 1
490 300 m 1
 490 0 l 1
 410 0 l 1
 410 300 l 1
 490 300 l 1
85 520 m 1
 165 520 l 1
 165 0 l 1
 85 0 l 1
 85 520 l 1
410 300 m 1
 410 390 390 460 295 460 c 0
 212 460 165 390 165 280 c 1
 130 280 l 1
 130 419 191 530 315 530 c 0
 439 530 490 429 490 300 c 1
 410 300 l 1
EndSplineSet
EndChar

StartChar: r
Encoding: 114 114 39
Width: 405
VWidth: 0
Flags: HW
LayerCount: 2
Fore
SplineSet
85 520 m 1
 165 520 l 1
 165 0 l 1
 85 0 l 1
 85 520 l 1
375 445 m 5
 355 445 l 6
 231 445 165 380 165 270 c 1
 130 270 l 1
 130 409 206 520 375 520 c 1
 375 445 l 5
EndSplineSet
EndChar

StartChar: u
Encoding: 117 117 40
Width: 630
VWidth: 0
Flags: HW
LayerCount: 2
Fore
SplineSet
80 220 m 1
 80 520 l 1
 160 520 l 1
 160 220 l 1
 80 220 l 1
545 0 m 1
 465 0 l 1
 465 520 l 1
 545 520 l 1
 545 0 l 1
160 220 m 1
 160 130 195 65 305 65 c 0
 403 65 465 130 465 240 c 1
 500 240 l 1
 500 101 424 -10 285 -10 c 0
 156 -10 80 91 80 220 c 1
 160 220 l 1
EndSplineSet
EndChar

StartChar: g
Encoding: 103 103 41
Width: 650
VWidth: 0
Flags: HW
LayerCount: 2
Fore
SplineSet
323 -145 m 1
 323 -220 l 1
 186 -220 104 -172 57 -108 c 1
 109 -56 l 1
 146 -105 210 -145 323 -145 c 1
565 20 m 1
 485 20 l 1
 485 520 l 1
 565 520 l 1
 565 20 l 1
520 260 m 0
 520 111 449 -10 300 -10 c 0
 171 -10 55 101 55 260 c 0
 55 419 171 530 300 530 c 0
 449 530 520 409 520 260 c 0
485 260 m 0
 485 379 407 455 310 455 c 0
 213 455 135 379 135 260 c 0
 135 141 213 65 310 65 c 0
 407 65 485 141 485 260 c 0
485 20 m 1
 565 20 l 1
 565 -119 452 -220 323 -220 c 1
 323 -145 l 1
 400 -145 485 -79 485 20 c 1
EndSplineSet
EndChar

StartChar: i
Encoding: 105 105 42
Width: 250
VWidth: 0
Flags: HW
LayerCount: 2
Fore
SplineSet
70 692 m 0
 70 722 95 747 125 747 c 0
 155 747 180 722 180 692 c 0
 180 662 155 637 125 637 c 0
 95 637 70 662 70 692 c 0
85 520 m 1
 165 520 l 1
 165 0 l 1
 85 0 l 1
 85 520 l 1
EndSplineSet
EndChar

StartChar: t
Encoding: 116 116 43
Width: 420
VWidth: 0
Flags: HMW
LayerCount: 2
Fore
SplineSet
40 520 m 1
 370 520 l 1
 370 445 l 1
 40 445 l 1
 40 520 l 1
190 140 m 1
 110 140 l 1
 110 673 l 1
 190 673 l 1
 190 140 l 1
262 65 m 1
 306 65 335 80 352 99 c 1
 390 40 l 1
 363 11 318 -10 256 -10 c 1
 262 65 l 1
190 140 m 5
 190 100 214 65 262 65 c 5
 256 -10 l 5
 167 -10 110 61 110 140 c 5
 190 140 l 5
EndSplineSet
EndChar

StartChar: a
Encoding: 97 97 44
Width: 575
VWidth: 0
Flags: HW
LayerCount: 2
Fore
SplineSet
320 307 m 5
 470 307 l 5
 470 243 l 5
 350 243 l 5
 320 307 l 5
420 330 m 5
 420 410 394 455 288 455 c 5
 294 530 l 5
 437 530 500 449 500 330 c 5
 420 330 l 5
288 455 m 5
 214 455 173 434 124 394 c 5
 80 450 l 5
 137 499 192 530 294 530 c 5
 288 455 l 5
420 330 m 5
 500 330 l 5
 500 0 l 5
 420 0 l 5
 420 330 l 5
123 155 m 5
 123 97 167 65 270 65 c 4
 348 65 420 100 420 180 c 5
 455 180 l 5
 455 71 379 -10 240 -10 c 4
 141 -10 43 41 43 160 c 5
 123 155 l 5
320 307 m 5
 350 243 l 5
 201 243 123 240 123 155 c 5
 43 160 l 5
 43 295 183 307 320 307 c 5
EndSplineSet
EndChar

StartChar: j
Encoding: 106 106 45
Width: 250
VWidth: 0
Flags: HW
LayerCount: 2
Fore
SplineSet
74 692 m 0
 74 722 99 747 129 747 c 0
 159 747 184 722 184 692 c 0
 184 662 159 637 129 637 c 0
 99 637 74 662 74 692 c 0
89 520 m 1
 169 520 l 1
 169 -60 l 1
 89 -60 l 1
 89 520 l 1
28 -135 m 1
 34 -210 l 1
 -23 -210 -73 -194 -100 -160 c 1
 -62 -101 l 1
 -45 -120 -15 -135 28 -135 c 1
89 -60 m 1
 169 -60 l 1
 169 -139 123 -210 34 -210 c 1
 28 -135 l 1
 65 -135 89 -100 89 -60 c 1
EndSplineSet
EndChar

StartChar: s
Encoding: 115 115 46
Width: 520
VWidth: 0
Flags: HW
LayerCount: 2
Fore
SplineSet
395 150 m 1
 475 150 l 1
 475 71 414 -10 275 -10 c 0
 166 -10 100 37 45 104 c 1
 100 155 l 1
 146 105 197 65 275 65 c 0
 348 65 395 90 395 150 c 1
  Spiro
    395 150 v
    475 150 v
    454.08 73.4785 o
    388.541 13.8812 o
    275 -10 o
    179.232 4.63835 o
    104.786 44.7173 o
    45 104 v
    100 155 v
    148.43 109.484 o
    205.248 77.1989 o
    275 65 o
    338.502 73.6859 o
    380.14 101.334 o
    0 0 z
  EndSpiro
150 393 m 1
 70 393 l 1
 70 469 146 530 255 530 c 0
 364 530 416 490 458 448 c 1
 409 393 l 1
 371 426 333 455 255 455 c 4
 177 455 150 425 150 393 c 1
  Spiro
    150 393 v
    70 393 v
    93.6949 462.235 o
    158.675 511.406 o
    255 530 o
    346.665 518.097 o
    410.98 487.889 o
    458 448 v
    409 393 v
    370.894 424.158 o
    321.758 446.498 o
    255 455 o
    190.936 446.054 o
    158.759 423.269 o
    0 0 z
  EndSpiro
280 307 m 0
 397 288 475 260 475 150 c 1
 395 150 l 1
 395 200 358.594726562 220.76171875 250 236 c 0
 146.522460938 250.520507812 70 288 70 393 c 1
 150 393 l 1
 150 343 182.280273438 322.869140625 280 307 c 0
  Spiro
    280 307 o
    382.469 282.329 o
    450.492 235.307 o
    475 150 v
    395 150 v
    381.568 191.099 o
    335.792 218.064 o
    250 236 o
    157.423 259.789 o
    93.6262 308.921 o
    70 393 v
    150 393 v
    161.963 352.041 o
    202.923 325.217 o
    0 0 z
  EndSpiro
EndSplineSet
EndChar

StartChar: v
Encoding: 118 118 47
Width: 585
VWidth: 0
Flags: HW
LayerCount: 2
Fore
SplineSet
330 0 m 5
 255 0 l 1
 255 5 l 1
 330 5 l 5
 330 0 l 5
255 5 m 1
 470 520 l 1
 550 520 l 1
 330 0 l 1
 255 5 l 1
35 520 m 1
 115 520 l 1
 330 5 l 1
 255 0 l 1
 35 520 l 1
EndSplineSet
EndChar

StartChar: f
Encoding: 102 102 48
Width: 370
VWidth: 0
Flags: HW
LayerCount: 2
Fore
SplineSet
45 520 m 1
 343 520 l 1
 343 445 l 1
 45 445 l 1
 45 520 l 1
195 590 m 1
 195 0 l 1
 115 0 l 1
 115 590 l 1
 195 590 l 1
265 665 m 1
 259 740 l 1
 321 740 366 719 393 690 c 1
 355 631 l 1
 338 650 309 665 265 665 c 1
195 590 m 1
 115 590 l 1
 115 669 170 740 259 740 c 1
 265 665 l 1
 210 665 195 629 195 590 c 1
EndSplineSet
EndChar

StartChar: y
Encoding: 121 121 49
Width: 574
VWidth: 0
Flags: HW
LayerCount: 2
Fore
SplineSet
39 520 m 5
 124 520 l 1
 349 5 l 1
 269 0 l 5
 39 520 l 5
163 -135 m 1
 169 -210 l 1
 112 -210 62 -184 35 -150 c 1
 72 -92 l 1
 89 -111 119 -135 163 -135 c 1
244 -60 m 2
 459 520 l 1
 539 520 l 1
 324 -60 l 2
 294.508789062 -139.55859375 258 -210 169 -210 c 1
 163 -135 l 1
 201 -135 229.153320312 -100.05078125 244 -60 c 2
EndSplineSet
EndChar

StartChar: w
Encoding: 119 119 50
Width: 795
VWidth: 0
Flags: HW
LayerCount: 2
Fore
SplineSet
365 520 m 1
 430 520 l 1
 430 475 l 5
 365 475 l 5
 365 520 l 1
605 0 m 1
 530 0 l 1
 530 5 l 1
 605 25 l 1
 605 0 l 1
530 5 m 1
 675 520 l 1
 755 520 l 1
 605 0 l 1
 530 5 l 1
375 475 m 5
 430 520 l 1
 595 25 l 1
 530 0 l 1
 375 475 l 5
265 0 m 1
 190 0 l 1
 190 25 l 1
 265 5 l 1
 265 0 l 1
200 25 m 1
 365 520 l 1
 420 475 l 5
 265 0 l 1
 200 25 l 1
40 520 m 1
 120 520 l 1
 265 5 l 1
 190 0 l 1
 40 520 l 1
EndSplineSet
EndChar

StartChar: x
Encoding: 120 120 51
Width: 610
VWidth: 0
Flags: HW
LayerCount: 2
Fore
SplineSet
40 0 m 1
 455 520 l 5
 550 520 l 5
 135 0 l 1
 40 0 l 1
60 520 m 1
 155 520 l 1
 570 0 l 5
 475 0 l 5
 60 520 l 1
EndSplineSet
EndChar

StartChar: z
Encoding: 122 122 52
Width: 570
VWidth: 0
Flags: HW
LayerCount: 2
Fore
SplineSet
55 65 m 1
 75 65 l 1
 75 0 l 1
 55 0 l 1
 55 65 l 1
75 75 m 1
 515 75 l 1
 515 0 l 1
 75 0 l 1
 75 75 l 1
485 520 m 1
 505 520 l 1
 505 455 l 1
 485 455 l 1
 485 520 l 1
75 520 m 5
 485 520 l 5
 485 445 l 5
 75 445 l 5
 75 520 l 5
410 455 m 1
 505 455 l 1
 150 65 l 1
 55 65 l 1
 410 455 l 1
EndSplineSet
EndChar

StartChar: zero
Encoding: 48 48 53
Width: 600
VWidth: 0
Flags: HW
LayerCount: 2
Fore
SplineSet
100 350 m 0
 100 193 168 70 300 70 c 0
 432 70 500 193 500 350 c 0
 500 507 432 630 300 630 c 0
 168 630 100 507 100 350 c 0
15 350 m 0
 15 549 125 710 300 710 c 0
 475 710 585 549 585 350 c 0
 585 151 475 -10 300 -10 c 0
 125 -10 15 151 15 350 c 0
EndSplineSet
EndChar

StartChar: one
Encoding: 49 49 54
Width: 600
VWidth: 0
Flags: HW
LayerCount: 2
Fore
SplineSet
375 700 m 5
 375 676 l 5
 300 676 l 5
 300 700 l 5
 375 700 l 5
300 700 m 5
 356 641 l 5
 156 501 l 5
 120 570 l 5
 300 700 l 5
290 690 m 5
 375 700 l 5
 375 0 l 5
 290 0 l 5
 290 690 l 5
EndSplineSet
EndChar

StartChar: six
Encoding: 54 54 55
Width: 600
VWidth: 0
Flags: HW
LayerCount: 2
Fore
SplineSet
125 220 m 5
 90 220 l 5
 90 349 201 445 330 445 c 5
 300 380 l 5
 192 380 125 310 125 220 c 5
459 700 m 5
 148 310 l 5
 98 360 l 5
 359 700 l 5
 459 700 l 5
125 220 m 4
 125 130 192 60 300 60 c 4
 408 60 475 130 475 220 c 4
 475 310 408 380 300 380 c 5
 330 445 l 5
 459 445 550 349 550 220 c 4
 550 91 449 -10 300 -10 c 4
 151 -10 50 91 50 220 c 4
 50 290.022460938 79.7587890625 351.794921875 130.799804688 393.641601562 c 5
 185.174804688 344.909179688 l 5
 146.650390625 315.858398438 125 271.161132812 125 220 c 4
EndSplineSet
EndChar

StartChar: period
Encoding: 46 46 56
Width: 190
VWidth: 0
Flags: HW
LayerCount: 2
Fore
SplineSet
30 55 m 4
 30 91 59 120 95 120 c 4
 131 120 160 91 160 55 c 4
 160 19 131 -10 95 -10 c 4
 59 -10 30 19 30 55 c 4
EndSplineSet
EndChar

StartChar: comma
Encoding: 44 44 58
Width: 214
VWidth: 0
Flags: HW
LayerCount: 2
Fore
SplineSet
50 55 m 4
 50 91 79 120 117 120 c 4
 155 120 184 91 184 55 c 4
 184 43 180.228515625 24.197265625 171 10 c 6
 80 -130 l 5
 30 -130 l 5
 90 -5 l 5
 69 3 50 27 50 55 c 4
EndSplineSet
EndChar

StartChar: two
Encoding: 50 50 60
Width: 600
VWidth: 0
Flags: HW
LayerCount: 2
Fore
SplineSet
50 65 m 1
 70 65 l 1
 70 0 l 1
 50 0 l 1
 50 65 l 1
440 516 m 5
 440 575 387 635 300 635 c 4
 211 635 155 573 120 490 c 5
 50 523 l 5
 92 629 182 710 300 710 c 4
 429 710 520 615 520 516 c 5
 440 516 l 5
70 0 m 1
 70 75 l 1
 550 75 l 1
 550 0 l 1
 70 0 l 1
364 251 m 2
 160 65 l 1
 50 65 l 1
 304 299 l 2
 400.442382812 387.848632812 440 445 440 516 c 1
 520 516 l 1
 520 406 467.044921875 344.953125 364 251 c 2
EndSplineSet
EndChar

StartChar: three
Encoding: 51 51 62
Width: 600
VWidth: 0
Flags: HW
LayerCount: 2
Fore
SplineSet
250 384 m 5
 437 384 550 347 550 197 c 4
 550 57 427 -10 300 -10 c 4
 210 -10 116 14 50 99 c 5
 101 148 l 5
 142 93 232 64 300 64 c 4
 383 64 470 108 470 197 c 4
 470 286 393 330 250 330 c 5
 250 384 l 5
75 602 m 1
 124 660 186 710 300 710 c 0
 434 710 520 629 520 530 c 0
 520 411 424 350 250 350 c 1
 250 405 l 1
 380 405 440 452 440 520 c 0
 440 588 390 635 300 635 c 0
 217 635 167 601 127 553 c 1
 75 602 l 1
EndSplineSet
EndChar

StartChar: eight
Encoding: 56 56 63
Width: 600
VWidth: 0
Flags: HW
LayerCount: 2
Fore
SplineSet
160 520 m 4
 160 452 220 405 300 405 c 4
 380 405 440 452 440 520 c 4
 440 588 380 635 300 635 c 4
 220 635 160 588 160 520 c 4
80 530 m 4
 80 629 176 710 300 710 c 4
 424 710 520 629 520 530 c 4
 520 411 424 350 300 350 c 4
 176 350 80 411 80 530 c 4
50 187 m 4
 50 337 163 384 300 384 c 4
 437 384 550 337 550 187 c 4
 550 57 437 -10 300 -10 c 4
 163 -10 50 57 50 187 c 4
130 197 m 4
 130 108 207 64 300 64 c 4
 393 64 470 108 470 197 c 4
 470 286 393 330 300 330 c 4
 207 330 130 286 130 197 c 4
EndSplineSet
EndChar

StartChar: four
Encoding: 52 52 64
Width: 600
VWidth: 0
Flags: HW
LayerCount: 2
Fore
SplineSet
40 210 m 1
 60 210 l 1
 60 145 l 1
 40 145 l 1
 40 210 l 1
60 220 m 1
 550 220 l 1
 550 145 l 1
 60 145 l 1
 60 220 l 1
470 700 m 1
 470 676 l 1
 375 676 l 1
 375 700 l 1
 470 700 l 1
375 700 m 1
 440 679 l 5
 125 210 l 5
 40 210 l 1
 375 700 l 1
385 680 m 1
 470 700 l 1
 470 0 l 1
 385 0 l 1
 385 680 l 1
EndSplineSet
EndChar

StartChar: five
Encoding: 53 53 65
Width: 600
VWidth: 0
Flags: HW
LayerCount: 2
Fore
SplineSet
70 311 m 1
 80 346 l 1
 130 346 l 1
 130 311 l 1
 70 311 l 1
320 455 m 1
 447 455 550 360 550 220 c 0
 550 70 427 -10 300 -10 c 0
 210 -10 116 14 50 99 c 1
 106 153 l 1
 147 98 227 66 300 66 c 0
 383 66 470 121 470 220 c 0
 470 309 413 380 300 380 c 1
 320 455 l 1
70 311 m 1
 130 700 l 1
 200 700 l 1
 150 341 l 1
 70 311 l 1
130 700 m 5
 510 700 l 5
 510 625 l 5
 130 625 l 5
 130 700 l 5
300 380 m 1
 223 380 170 360 130 311 c 1
 100 311 l 1
 130 400 181 455 320 455 c 1
 300 380 l 1
EndSplineSet
EndChar

StartChar: seven
Encoding: 55 55 66
Width: 600
VWidth: 0
Flags: HW
LayerCount: 2
Fore
SplineSet
551 640 m 1
 241 0 l 5
 161 0 l 5
 471 640 l 1
 551 640 l 1
530 700 m 1
 551 700 l 1
 551 640 l 1
 530 640 l 1
 530 700 l 1
50 700 m 1
 530 700 l 1
 530 625 l 1
 50 625 l 1
 50 700 l 1
EndSplineSet
EndChar

StartChar: exclam
Encoding: 33 33 67
Width: 190
VWidth: 0
Flags: HW
LayerCount: 2
Fore
SplineSet
48 490 m 5
 142 490 l 5
 117 250 l 5
 73 250 l 5
 48 490 l 5
48 730 m 5
 142 730 l 5
 142 490 l 5
 48 490 l 5
 48 730 l 5
EndSplineSet
Refer: 56 46 S 1 0 0 1 0 0 2
EndChar

StartChar: quotesingle
Encoding: 39 39 69
Width: 170
VWidth: 0
Flags: HW
LayerCount: 2
Fore
SplineSet
30 685 m 0
 30 715 55 740 85 740 c 0
 115 740 140 715 140 685 c 0
 140 678.99609375 139.080078125 673.501953125 138.157226562 667.750976562 c 2
 107 480 l 1
 63 480 l 1
 31.8427734375 667.750976562 l 2
 30.9443359375 673.344726562 30 678.99609375 30 685 c 0
EndSplineSet
EndChar

StartChar: numbersign
Encoding: 35 35 70
Width: 810
VWidth: 0
Flags: HW
LayerCount: 2
Fore
SplineSet
710 240 m 1
 710 165 l 1
 60 165 l 1
 60 240 l 1
 710 240 l 1
750 535 m 1
 750 460 l 1
 100 460 l 1
 100 535 l 1
 750 535 l 1
565 700 m 1
 645 700 l 1
 525 0 l 1
 445 0 l 1
 565 700 l 1
285 700 m 1
 365 700 l 1
 245 0 l 1
 165 0 l 1
 285 700 l 1
EndSplineSet
EndChar

StartChar: percent
Encoding: 37 37 71
Width: 940
VWidth: 0
Flags: HW
LayerCount: 2
Fore
SplineSet
100 550 m 0
 100 481 154 425 220 425 c 0
 286 425 340 481 340 550 c 0
 340 619 286 675 220 675 c 0
 154 675 100 619 100 550 c 0
30 550 m 0
 30 655 115 740 220 740 c 0
 325 740 410 655 410 550 c 0
 410 445 325 360 220 360 c 0
 115 360 30 445 30 550 c 0
600 180 m 0
 600 111 654 55 720 55 c 0
 786 55 840 111 840 180 c 0
 840 249 786 305 720 305 c 0
 654 305 600 249 600 180 c 0
530 180 m 0
 530 285 615 370 720 370 c 0
 825 370 910 285 910 180 c 0
 910 75 825 -10 720 -10 c 0
 615 -10 530 75 530 180 c 0
690 730 m 1
 770 730 l 1
 250 0 l 1
 170 0 l 1
 690 730 l 1
EndSplineSet
EndChar

StartChar: dollar
Encoding: 36 36 72
Width: 625
VWidth: 0
Flags: HW
LayerCount: 2
Fore
SplineSet
291 780 m 5
 361 780 l 5
 361 -80 l 5
 291 -80 l 5
 291 780 l 5
485 200 m 1
 565 200 l 1
 565 71 477 0 328 0 c 0
 199 0 112 56 50 113 c 1
 101 173 l 1
 149 129 230 75 328 75 c 0
 421 75 485 110 485 200 c 1
160 524 m 1
 80 524 l 1
 80 645 196 700 305 700 c 0
 414 700 496 664 548 612 c 1
 500 558 l 1
 455 602 383 625 305 625 c 0
 222 625 160 596 160 524 c 1
330 404 m 0
 447 386 565 330 565 200 c 1
 485 200 l 1
 485 271 408.594726562 311.76171875 300 326 c 0
 196.39453125 339.583984375 80 399 80 524 c 1
 160 524 l 1
 160 454 232.151367188 419.053710938 330 404 c 0
EndSplineSet
EndChar

StartChar: asterisk
Encoding: 42 42 73
Width: 324
VWidth: 0
Flags: HW
LayerCount: 2
Fore
SplineSet
45 483 m 5
 20 527 l 5
 279 677 l 5
 304 633 l 5
 45 483 l 5
20 633 m 5
 45 677 l 5
 304 527 l 5
 279 483 l 5
 20 633 l 5
137 730 m 5
 187 730 l 5
 187 430 l 5
 137 430 l 5
 137 730 l 5
EndSplineSet
EndChar

StartChar: slash
Encoding: 47 47 74
Width: 430
VWidth: 0
Flags: HW
LayerCount: 2
Fore
SplineSet
380 780 m 5
 450 780 l 5
 50 -80 l 5
 -20 -80 l 5
 380 780 l 5
EndSplineSet
EndChar

StartChar: ampersand
Encoding: 38 38 75
Width: 696
VWidth: 0
Flags: HW
LayerCount: 2
Fore
SplineSet
285 395 m 0
 361.7890625 415.8046875 415 480 415 530 c 5
 495 530 l 5
 495 435 407.557617188 367.01171875 315 345 c 0
 217.270507812 321.758789062 130 291 130 190 c 1
 50 190 l 1
 50 330 179.364257812 366.379882812 285 395 c 0
215 530 m 5
 135 530 l 5
 135 639 206 710 315 710 c 0
 424 710 495 639 495 530 c 5
 415 530 l 5
 415 589 372 635 315 635 c 0
 258 635 215 589 215 530 c 5
281 291 m 2
 188.989257812 392.038085938 135 440 135 530 c 5
 215 530 l 5
 215 469 255.012695312 434.572265625 341 339 c 2
 645 0 l 1
 545 0 l 1
 281 291 l 2
560 310 m 1
 630 284 l 1
 600 115 469 -10 300 -10 c 0
 151 -10 50 61 50 190 c 1
 130 190 l 1
 130 111 203 65 310 65 c 0
 427 65 530 161 560 310 c 1
EndSplineSet
EndChar

StartChar: parenleft
Encoding: 40 40 76
Width: 275
VWidth: 0
Flags: HW
LayerCount: 2
Fore
SplineSet
195 740 m 5
 255 720 l 5
 95 460 95 70 255 -190 c 5
 195 -210 l 5
 -5 100 -5 430 195 740 c 5
EndSplineSet
EndChar

StartChar: hyphen
Encoding: 45 45 78
Width: 430
VWidth: 0
Flags: HW
LayerCount: 2
Fore
SplineSet
65 335 m 5
 365 335 l 5
 365 260 l 5
 65 260 l 5
 65 335 l 5
EndSplineSet
EndChar

StartChar: plus
Encoding: 43 43 79
Width: 510
VWidth: 0
Flags: HW
LayerCount: 2
Fore
SplineSet
295 589 m 1
 295 134 l 1
 215 134 l 1
 215 589 l 1
 295 589 l 1
30 399 m 5
 480 399 l 5
 480 324 l 5
 30 324 l 5
 30 399 l 5
EndSplineSet
EndChar

StartChar: equal
Encoding: 61 61 80
Width: 510
VWidth: 0
Flags: HW
LayerCount: 2
Fore
SplineSet
30 275 m 5
 480 275 l 5
 480 200 l 5
 30 200 l 5
 30 275 l 5
30 510 m 5
 480 510 l 5
 480 435 l 5
 30 435 l 5
 30 510 l 5
EndSplineSet
EndChar

StartChar: backslash
Encoding: 92 92 81
Width: 430
VWidth: 0
Flags: HW
LayerCount: 2
Fore
SplineSet
50 780 m 5
 450 -80 l 5
 380 -80 l 5
 -20 780 l 5
 50 780 l 5
EndSplineSet
EndChar

StartChar: less
Encoding: 60 60 82
Width: 510
VWidth: 0
Flags: HW
LayerCount: 2
Fore
SplineSet
30 395 m 5
 480 195 l 5
 480 120 l 5
 30 320 l 5
 30 395 l 5
30 395 m 5
 480 595 l 5
 480 520 l 5
 30 320 l 5
 30 395 l 5
EndSplineSet
EndChar

StartChar: question
Encoding: 63 63 84
Width: 555
VWidth: 0
Flags: HW
LayerCount: 2
Fore
SplineSet
337 435 m 4
 392.67578125 463.341796875 420 506 420 556 c 5
 500 556 l 5
 500 461 458.134765625 411.75 380 374 c 4
 321.237304688 345.609375 295 331 295 250 c 5
 215 250 l 5
 205 380 267.790039062 399.768554688 337 435 c 4
420 556 m 5
 420 615 372 665 285 665 c 4
 196 665 141 617 106 554 c 5
 40 593 l 5
 82 679 162 740 285 740 c 4
 419 740 500 655 500 556 c 5
 420 556 l 5
EndSplineSet
Refer: 56 46 S 1 0 0 1 165 0 2
EndChar

StartChar: at
Encoding: 64 64 85
Width: 1050
VWidth: 0
Flags: HW
LayerCount: 2
Fore
SplineSet
525 260 m 1048
700 260 m 0,0,1
 700 379 622 455 525 455 c 0,2,3
 428 455 350 379 350 260 c 0,4,5
 350 141 428 65 525 65 c 0,6,7
 622 65 700 141 700 260 c 0,0,1
735 260 m 0,8,9
 735 111 664 -10 515 -10 c 0,10,11
 386 -10 270 101 270 260 c 0,12,13
 270 419 386 530 515 530 c 0,14,15
 664 530 735 409 735 260 c 0,8,9
780 520 m 1,16,-1
 780 120 l 1,17,-1
 700 100 l 1,18,-1
 700 520 l 1,19,-1
 780 520 l 1,16,-1
55 260 m 0,16,17
 55 519 246 730 525 730 c 0,18,19
 784 730 995 559 995 300 c 0,20,21
 995 63.638671875 873.768554688 -10.2880859375 797.8671875 -10.2880859375 c 0,0,0
 723.793945312 -10.2880859375 700 43.19921875 700 100 c 1,1,-1
 780 120 l 1,2,3
 780 80.53515625 790.893554688 51.859375 837.37890625 51.859375 c 0,0,0
 878.646484375 51.859375 964 115.765625 964 300 c 0,1,2
 964 543 768 701 525 701 c 0,3,4
 262 701 86 503 86 260 c 0,5,6
 86 17 282 -181 525 -181 c 1,7,-1
 525 -210 l 1,8,9
 266 -210 55 1 55 260 c 0,16,17
EndSplineSet
EndChar

StartChar: bracketleft
Encoding: 91 91 86
Width: 295
VWidth: 0
Flags: HW
LayerCount: 2
Fore
SplineSet
125 654 m 1
 125 730 l 1
 275 730 l 1
 275 654 l 1
 125 654 l 1
125 -200 m 1
 125 -124 l 1
 275 -124 l 1
 275 -200 l 1
 125 -200 l 1
45 730 m 1
 125 730 l 1
 125 -200 l 1
 45 -200 l 1
 45 730 l 1
EndSplineSet
EndChar

StartChar: asciicircum
Encoding: 94 94 88
Width: 510
VWidth: 0
Flags: HW
LayerCount: 2
Fore
SplineSet
420 430 m 5
 220 730 l 5
 290 730 l 5
 490 430 l 5
 420 430 l 5
220 730 m 5
 290 730 l 5
 90 430 l 5
 20 430 l 5
 220 730 l 5
EndSplineSet
EndChar

StartChar: underscore
Encoding: 95 95 89
Width: 600
VWidth: 0
Flags: HW
LayerCount: 2
Fore
SplineSet
-2 -80 m 5
 602 -80 l 5
 602 -160 l 5
 -2 -160 l 5
 -2 -80 l 5
EndSplineSet
EndChar

StartChar: braceleft
Encoding: 123 123 90
Width: 349
VWidth: 0
Flags: HW
LayerCount: 2
Fore
SplineSet
45 305 m 5
 63 305 l 5
 63 225 l 5
 45 225 l 5
 45 305 l 5
147 150 m 5
 227 150 l 5
 227 -50 l 5
 147 -50 l 5
 147 150 l 5
147 580 m 5
 227 580 l 5
 227 380 l 5
 147 380 l 5
 147 580 l 5
147 380 m 5
 227 380 l 5
 227 301 170 250 51 250 c 5
 45 305 l 5
 133 305 147 340 147 380 c 5
147 150 m 5
 147 190 123 225 45 225 c 5
 51 280 l 5
 170 280 227 229 227 150 c 5
 147 150 l 5
227 580 m 5
 147 580 l 5
 147 659 204 730 323 730 c 5
 329 655 l 5
 251 655 227 620 227 580 c 5
227 -50 m 5
 227 -90 251 -125 329 -125 c 5
 323 -200 l 5
 204 -200 147 -129 147 -50 c 5
 227 -50 l 5
EndSplineSet
EndChar

StartChar: bar
Encoding: 124 124 92
Width: 300
VWidth: 0
Flags: HW
LayerCount: 2
Fore
SplineSet
185 780 m 1
 185 -80 l 1
 115 -80 l 5
 115 780 l 5
 185 780 l 1
EndSplineSet
EndChar

StartChar: asciitilde
Encoding: 126 126 93
Width: 470
VWidth: 0
Flags: HW
LayerCount: 2
Fore
SplineSet
115 174 m 5
 45 194 l 5
 49.5654296875 272.260742188 96.859375 310.638671875 148.23046875 310.638671875 c 4
 211.844726562 310.638671875 267.365234375 246.962890625 311.607421875 246.962890625 c 4
 356.108398438 246.962890625 365 276.58984375 365 314 c 5
 425 294 l 5
 420.434570312 205.739257812 373.989257812 177.361328125 323.821289062 177.361328125 c 4
 262.262695312 177.361328125 209.831054688 241.037109375 167.247070312 241.037109375 c 4
 123.446289062 241.037109375 115 211.41015625 115 174 c 5
EndSplineSet
EndChar

StartChar: tilde
Encoding: 732 732 98
Width: 500
VWidth: 0
Flags: HW
LayerCount: 2
Fore
SplineSet
130 600 m 5
 60 620 l 5
 64.5654296875 698.260742188 111.859375 736.638671875 163.23046875 736.638671875 c 4
 226.844726562 736.638671875 282.365234375 672.962890625 326.607421875 672.962890625 c 4
 371.108398438 672.962890625 380 702.58984375 380 740 c 5
 440 720 l 5
 435.434570312 631.739257812 388.989257812 603.361328125 338.821289062 603.361328125 c 4
 277.262695312 603.361328125 224.831054688 667.037109375 182.247070312 667.037109375 c 4
 138.446289062 667.037109375 130 637.41015625 130 600 c 5
EndSplineSet
EndChar

StartChar: dotaccent
Encoding: 729 729 99
Width: 500
VWidth: 0
Flags: HW
LayerCount: 2
Fore
SplineSet
185 645 m 4
 185 681 214 710 250 710 c 4
 286 710 315 681 315 645 c 4
 315 609 286 580 250 580 c 4
 214 580 185 609 185 645 c 4
EndSplineSet
EndChar

StartChar: ring
Encoding: 730 730 100
Width: 500
VWidth: 0
Flags: HW
LayerCount: 2
Fore
SplineSet
180 680 m 0
 180 641 211 610 250 610 c 0
 289 610 320 641 320 680 c 0
 320 719 289 750 250 750 c 0
 211 750 180 719 180 680 c 0
150 680 m 0
 150 735 195 780 250 780 c 0
 305 780 350 735 350 680 c 0
 350 625 305 580 250 580 c 0
 195 580 150 625 150 680 c 0
EndSplineSet
EndChar

StartChar: breve
Encoding: 728 728 101
Width: 500
VWidth: 0
Flags: HW
LayerCount: 2
Fore
SplineSet
244 659 m 5
 244 579 l 5
 145 579 74 636 74 725 c 1
 149 731 l 1
 149 683 184 659 244 659 c 5
244 659 m 5
 304 659 339 683 339 731 c 5
 414 725 l 5
 414 636 343 579 244 579 c 5
 244 659 l 5
EndSplineSet
EndChar

StartChar: circumflex
Encoding: 710 710 102
Width: 500
VWidth: 0
Flags: HW
LayerCount: 2
Fore
SplineSet
315 630 m 5
 215 730 l 5
 285 730 l 5
 385 630 l 5
 315 630 l 5
215 730 m 5
 285 730 l 5
 185 630 l 5
 115 630 l 5
 215 730 l 5
EndSplineSet
EndChar

StartChar: caron
Encoding: 711 711 103
Width: 500
VWidth: 0
Flags: HW
LayerCount: 2
Fore
SplineSet
185 730 m 1
 285 630 l 1
 215 630 l 1
 115 730 l 1
 185 730 l 1
285 630 m 1
 215 630 l 1
 315 730 l 1
 385 730 l 1
 285 630 l 1
EndSplineSet
EndChar

StartChar: cent
Encoding: 162 162 105
Width: 573
VWidth: 0
Flags: HW
LayerCount: 2
Fore
SplineSet
305 600 m 5
 345 600 l 5
 345 -80 l 1
 305 -80 l 1
 305 600 l 5
135 260 m 0
 135 151 218 65 325 65 c 0
 389 65 445 94 482 143 c 1
 533 92 l 1
 486 28 412 -10 325 -10 c 0
 176 -10 55 111 55 260 c 0
 55 409 176 530 325 530 c 0
 412 530 485 491 532 428 c 1
 482 377 l 1
 445 426 389 455 325 455 c 0
 218 455 135 369 135 260 c 0
EndSplineSet
EndChar

